<svg xmlns="http://www.w3.org/2000/svg" xmlns:svg="http://www.w3.org/2000/svg" id="svg5692" width="32" height="32" version="1.1"><title id="title2829">GIS icon theme 0.2</title><metadata id="metadata5697"/><g id="layer2" style="display:inline"><g id="g3071" transform="translate(-1.5e-7,2.9375584)"><path id="path2960" d="M 3.1572212,3.1572206 11.707585,23.749318 21.110969,3.3492624 28.84278,3.3200046" style="color:#000;fill:none;stroke:#415a75;stroke-width:1.78710628;stroke-linecap:round;stroke-linejoin:round;stroke-miterlimit:4;stroke-opacity:1;stroke-dasharray:none;stroke-dashoffset:0;marker:none;visibility:visible;display:inline;overflow:visible;enable-background:accumulate"/><path id="path2958" d="m 4.5,12.5 c 0,0.552285 -0.4477153,1 -1,1 -0.5522847,0 -1,-0.447715 -1,-1 0,-0.552285 0.4477153,-1 1,-1 0.5522847,0 1,0.447715 1,1 z" transform="matrix(2.263668,0,0,2.263668,-4.7656167,-25.138629)" style="color:#000;fill:#eeeeec;fill-opacity:1;fill-rule:evenodd;stroke:#415a75;stroke-width:.78947365;stroke-linecap:round;stroke-linejoin:round;stroke-miterlimit:4;stroke-opacity:1;stroke-dasharray:none;stroke-dashoffset:0;marker:none;visibility:visible;display:inline;overflow:visible;enable-background:accumulate"/><path id="path2958-0" d="m 4.5,12.5 c 0,0.552285 -0.4477153,1 -1,1 -0.5522847,0 -1,-0.447715 -1,-1 0,-0.552285 0.4477153,-1 1,-1 0.5522847,0 1,0.447715 1,1 z" transform="matrix(2.263668,0,0,2.263668,3.8127783,-5.6260389)" style="color:#000;fill:#eeeeec;fill-opacity:1;fill-rule:evenodd;stroke:#415a75;stroke-width:1.05263162;stroke-linecap:round;stroke-linejoin:round;stroke-miterlimit:4;stroke-opacity:1;stroke-dasharray:none;stroke-dashoffset:0;marker:none;visibility:visible;display:inline;overflow:visible;enable-background:accumulate"/><path id="path2958-9" d="m 4.5,12.5 c 0,0.552285 -0.4477153,1 -1,1 -0.5522847,0 -1,-0.447715 -1,-1 0,-0.552285 0.4477153,-1 1,-1 0.5522847,0 1,0.447715 1,1 z" transform="matrix(2.263668,0,0,2.263668,12.949214,-24.994533)" style="color:#000;fill:#eeeeec;fill-opacity:1;fill-rule:evenodd;stroke:#415a75;stroke-width:.78947365;stroke-linecap:round;stroke-linejoin:round;stroke-miterlimit:4;stroke-opacity:1;stroke-dasharray:none;stroke-dashoffset:0;marker:none;visibility:visible;display:inline;overflow:visible;enable-background:accumulate"/><path id="path2958-6" d="m 4.5,12.5 c 0,0.552285 -0.4477153,1 -1,1 -0.5522847,0 -1,-0.447715 -1,-1 0,-0.552285 0.4477153,-1 1,-1 0.5522847,0 1,0.447715 1,1 z" transform="matrix(2.263668,0,0,2.263668,20.919941,-24.975845)" style="color:#000;fill:#eeeeec;fill-opacity:1;fill-rule:evenodd;stroke:#415a75;stroke-width:.78947365;stroke-linecap:round;stroke-linejoin:round;stroke-miterlimit:4;stroke-opacity:1;stroke-dasharray:none;stroke-dashoffset:0;marker:none;visibility:visible;display:inline;overflow:visible;enable-background:accumulate"/></g></g></svg>