<svg xmlns="http://www.w3.org/2000/svg" width="24" height="24"><title>ring fill</title><metadata id="metadata5697">image/svg+xmlring fill2014-02-04Robert Szczepanekring fillGIS icons 0.2</metadata><g><title>background</title><rect id="canvas_background" width="582" height="402" x="-1" y="-1" fill="none"/></g><g><title>Layer 1</title><g id="layer4" display="inline"><g id="g3221"><path id="path4133" fill="#fcffff" fill-rule="evenodd" d="m14,19l9,-0.0096c0,0 0,0 0,-2c0,-2.9904 -1,-2.9904 -4.5,-2.9904c-3.5,0 -4.5,0 -4.5,3c0,2 0,2 0,2z" opacity=".3"/></g><rect id="rect4294" width="5" height="5" x="1.5" y="9.5" fill="#8cbe8c" stroke="#4c4d4c" stroke-linecap="round" stroke-miterlimit="4" stroke-opacity=".933" stroke-width="1" rx="3.125" ry="3.125"/><rect id="rect4294-9" width="5" height="5" x="8.5" y="1.5" fill="#8cbe8c" stroke="#4b4c4b" stroke-linecap="round" stroke-miterlimit="4" stroke-opacity=".957" stroke-width="1" rx="3.125" ry="3.125"/><rect id="rect4294-9-0" width="5" height="5" x="17.5" y="3.5" fill="#8cbe8c" stroke="#4c4d4c" stroke-linecap="round" stroke-miterlimit="4" stroke-opacity=".933" stroke-width="1" rx="3.125" ry="3.125"/></g><g id="svg_6" display="inline"><g id="svg_2"><path id="svg_1" fill="#fcffff" fill-rule="evenodd" d="m12.912787,32.302369l9,-0.0096c0,0 0,0 0,-2c0,-2.9904 -1,-2.9904 -4.5,-2.9904c-3.5,0 -4.5,0 -4.5,3c0,2 0,2 0,2z" opacity=".3"/></g><rect id="svg_4" width="5" height="5" x="7.413" y="14.802" fill="#ff7f00" stroke="#4b4c4b" stroke-linecap="round" stroke-miterlimit="4" stroke-opacity=".957" stroke-width="1" rx="3.125" ry="3.125"/><rect id="svg_5" width="5" height="5" x="16.413" y="16.802" fill="#ff7f00" stroke="#4c4d4c" stroke-linecap="round" stroke-miterlimit="4" stroke-opacity=".933" stroke-width="1" rx="3.125" ry="3.125"/></g></g></svg>