<svg xmlns="http://www.w3.org/2000/svg" xmlns:svg="http://www.w3.org/2000/svg" id="svg5692" width="24" height="24" version="1.1"><title id="title2829">GIS icon theme 0.2</title><metadata id="metadata5697"/><g id="layer2" transform="translate(0,-8)" style="display:inline"><g id="g3028" transform="matrix(0.75161647,0,0,0.75161647,-0.02586348,9.4769448)"><path id="path3775" d="m 16.000001,1.0775438 c 9.467477,4.6992805 8.114981,22.3215822 0,25.8460432" style="fill:none;stroke:#749fcf;stroke-width:1;stroke-linecap:butt;stroke-linejoin:miter;stroke-miterlimit:4;stroke-opacity:1;stroke-dasharray:none"/><path id="path3773" d="m 1.1225356,14.000566 29.7549294,0" style="fill:none;stroke:#749fcf;stroke-width:1;stroke-linecap:butt;stroke-linejoin:miter;stroke-miterlimit:4;stroke-opacity:1;stroke-dasharray:none"/><path id="path3773-1" d="m 2.9484075,6.9340877 c 7.5739815,1.0094969 18.3939565,1.0094969 25.9679385,0" style="fill:none;stroke:#749fcf;stroke-width:1;stroke-linecap:butt;stroke-linejoin:miter;stroke-miterlimit:4;stroke-opacity:1;stroke-dasharray:none;display:inline"/><path id="path3773-4" d="m 2.9484075,21.067042 c 7.5739815,-1.009496 18.3939565,-1.009496 25.9679385,0" style="fill:none;stroke:#749fcf;stroke-width:1;stroke-linecap:butt;stroke-linejoin:miter;stroke-miterlimit:4;stroke-opacity:1;stroke-dasharray:none;display:inline"/><path id="path3777" d="m 16.000001,1.0775438 c -8.1149812,3.5244605 -9.467478,21.1467632 0,25.8460432" style="fill:none;stroke:#749fcf;stroke-width:1;stroke-linecap:butt;stroke-linejoin:miter;stroke-miterlimit:4;stroke-opacity:1;stroke-dasharray:none"/><path id="path3003" d="m 6.9656949,13.809332 c 0,6.713955 -5.4228716,12.15669 -12.1123228,12.15669 -6.6894511,0 -12.1123231,-5.442735 -12.1123231,-12.15669 0,-6.7139549 5.422872,-12.1566907 12.1123231,-12.1566907 6.6894512,0 12.1123228,5.4427358 12.1123228,12.1566907 z" transform="matrix(1.2562074,0,0,1.0871977,22.465232,-1.0129089)" style="fill:none;stroke:#5488c4;stroke-width:1.28353083;stroke-miterlimit:4;stroke-opacity:1;stroke-dasharray:none"/><path id="path2960" d="M 7.3400991,7.2779254 13.185401,22.026434 19.613856,7.4154701 24.89957,7.3945152" style="color:#000;fill:none;stroke:#172739;stroke-width:1.29794168;stroke-linecap:round;stroke-linejoin:round;stroke-miterlimit:4;stroke-opacity:1;stroke-dasharray:none;stroke-dashoffset:0;marker:none;visibility:visible;display:inline;overflow:visible;enable-background:accumulate"/><path id="path2958" d="m 4.5,12.5 c 0,0.552285 -0.4477153,1 -1,1 -0.5522847,0 -1,-0.447715 -1,-1 0,-0.552285 0.4477153,-1 1,-1 0.5522847,0 1,0.447715 1,1 z" transform="matrix(1.5475161,0,0,1.6212881,1.923793,-12.988176)" style="color:#000;fill:#fff;fill-opacity:1;fill-rule:evenodd;stroke:#172739;stroke-width:.94698602;stroke-linecap:round;stroke-linejoin:round;stroke-miterlimit:4;stroke-opacity:1;stroke-dasharray:none;stroke-dashoffset:0;marker:none;visibility:visible;display:inline;overflow:visible;enable-background:accumulate"/><path id="path2958-0" d="m 4.5,12.5 c 0,0.552285 -0.4477153,1 -1,1 -0.5522847,0 -1,-0.447715 -1,-1 0,-0.552285 0.4477153,-1 1,-1 0.5522847,0 1,0.447715 1,1 z" transform="matrix(1.5839392,0,0,1.6212881,7.641614,1.7603321)" style="color:#000;fill:#fff;fill-opacity:1;fill-rule:evenodd;stroke:#172739;stroke-width:.93603462;stroke-linecap:round;stroke-linejoin:round;stroke-miterlimit:4;stroke-opacity:1;stroke-dasharray:none;stroke-dashoffset:0;marker:none;visibility:visible;display:inline;overflow:visible;enable-background:accumulate"/><path id="path2958-9" d="m 4.5,12.5 c 0,0.552285 -0.4477153,1 -1,1 -0.5522847,0 -1,-0.447715 -1,-1 0,-0.552285 0.4477153,-1 1,-1 0.5522847,0 1,0.447715 1,1 z" transform="matrix(1.5475161,0,0,1.6212881,14.034218,-12.884972)" style="color:#000;fill:#fff;fill-opacity:1;fill-rule:evenodd;stroke:#172739;stroke-width:.94698602;stroke-linecap:round;stroke-linejoin:round;stroke-miterlimit:4;stroke-opacity:1;stroke-dasharray:none;stroke-dashoffset:0;marker:none;visibility:visible;display:inline;overflow:visible;enable-background:accumulate"/><path id="path2958-6" d="m 4.5,12.5 c 0,0.552285 -0.4477153,1 -1,1 -0.5522847,0 -1,-0.447715 -1,-1 0,-0.552285 0.4477153,-1 1,-1 0.5522847,0 1,0.447715 1,1 z" transform="matrix(1.5475161,0,0,1.6212881,19.483264,-12.871586)" style="color:#000;fill:#fff;fill-opacity:1;fill-rule:evenodd;stroke:#172739;stroke-width:.94698602;stroke-linecap:round;stroke-linejoin:round;stroke-miterlimit:4;stroke-opacity:1;stroke-dasharray:none;stroke-dashoffset:0;marker:none;visibility:visible;display:inline;overflow:visible;enable-background:accumulate"/></g></g></svg>